<svg xmlns="http://www.w3.org/2000/svg" viewBox="0 0 379.69 380"><g data-name="Layer 2"><path fill="#00f4c5" d="M230.89 188.5a40.37 40.37 0 11-40.39-40.39 40.44 40.44 0 0140.39 40.39zM57 207.92h-.87a79.03 79.03 0 00-3.79-.08 5.39 5.39 0 01-3.1-.81 7.34 7.34 0 01-4.36-2.15 10.19 10.19 0 01-3.16-5.88c0-.18 0-.36-.06-.55v-.4c0-.16 0-.32.37-.48v-.23c-.38 0-.37-.07-.37-.1v-.21a1 1 0 010-.17v-.52a2.54 2.54 0 000-.29l-.74-.06h.75c0-.26.1-.53.17-.79l.18-.66.13-.39.15-.39.16-.38.17-.37.25-.46.4-.67c.14-.22.33-.47.51-.69l.35-.42a4.61 4.61 0 01.37-.4l.2-.2.2-.19 1.06-1L243.87 7.75A190.07 190.07 0 00190 0C85.07 0 0 85.07 0 190a190.09 190.09 0 00126.28 179.05C179 308.87 138.93 211.48 57 207.92zm322.68-19.59A190 190 0 00265.55 15.76l-2.08 1.9C199 76.7 238.89 183.3 324.69 187c1.54.08 3.09.11 4.66.11a10.94 10.94 0 017.47 3A10.22 10.22 0 01340 196a5.43 5.43 0 01.06.55v1.42a1 1 0 010 .17v.49c0 .11 0 .22-.05.33a.5.5 0 000 .12 10.61 10.61 0 01-.67 2.34 3.73 3.73 0 01-.16.35l-.12.26-.24.46a10.15 10.15 0 01-.92 1.36c-.11.14-.22.28-.35.42a4.61 4.61 0 01-.37.4l-.4.39-1.06 1-185.53 169.82a190.52 190.52 0 0043.06 4.12c103.75-1.94 187.32-87.86 186.43-191.67zM190.5 148.11a40.14 40.14 0 00-20.34 5.51 40.62 40.62 0 00-14.65 14.72 40.38 40.38 0 1035-20.23zm40.39 40.39a40.37 40.37 0 11-40.39-40.39 40.44 40.44 0 0140.39 40.39zm-20.78 0a19.62 19.62 0 00-19.61-19.61 18.79 18.79 0 00-4.53.54 19.63 19.63 0 00-14.6 14.76 19.17 19.17 0 00-.48 4.31 19.61 19.61 0 0039.22 0z" data-name="Layer 1"/></g></svg>